<svg width="213" height="47" viewBox="0 0 213 47" fill="none" xmlns="http://www.w3.org/2000/svg">
<g opacity="0.25">
<path d="M27.0762 45.627H25.875L23.6777 42.2578C22.7598 43.4688 21.6465 44.4355 20.3379 45.1582C19.0293 45.8613 17.5742 46.2129 15.9726 46.2129H13.7754C12.3496 46.2129 11.0019 45.9492 9.73241 45.4219C8.48241 44.875 7.38866 44.1328 6.45116 43.1953C5.51366 42.2578 4.77147 41.1641 4.22459 39.9141C3.69725 38.6641 3.43358 37.3262 3.43358 35.9004V13.3418C3.43358 11.916 3.69725 10.5781 4.22459 9.32812C4.77147 8.07812 5.51366 6.98438 6.45116 6.04688C7.38866 5.10938 8.48241 4.37695 9.73241 3.84961C11.0019 3.30273 12.3496 3.0293 13.7754 3.0293H16.7637C18.1894 3.0293 19.5273 3.30273 20.7773 3.84961C22.0273 4.37695 23.1211 5.10938 24.0586 6.04688C24.9961 6.98438 25.7285 8.07812 26.2558 9.32812C26.8027 10.5781 27.0762 11.916 27.0762 13.3418V15.041L23.2969 15.627V13.3418C23.2969 12.4043 23.1211 11.5352 22.7695 10.7344C22.418 9.91406 21.9394 9.20117 21.334 8.5957C20.7285 7.99023 20.0156 7.51172 19.1953 7.16016C18.3945 6.80859 17.5254 6.63281 16.5879 6.63281H13.9512C13.0137 6.63281 12.1348 6.80859 11.3144 7.16016C10.5137 7.51172 9.80077 7.99023 9.17577 8.5957C8.5703 9.20117 8.09178 9.91406 7.74022 10.7344C7.38866 11.5352 7.21288 12.4043 7.21288 13.3418V35.9004C7.21288 36.8379 7.38866 37.7168 7.74022 38.5371C8.09178 39.3379 8.5703 40.0508 9.17577 40.6758C9.80077 41.2812 10.5137 41.7598 11.3144 42.1113C12.1348 42.4629 13.0137 42.6387 13.9512 42.6387H16.5879C17.5254 42.6387 18.3945 42.4629 19.1953 42.1113C20.0156 41.7598 20.7285 41.2812 21.334 40.6758C21.9394 40.0508 22.418 39.3379 22.7695 38.5371C23.1211 37.7168 23.2969 36.8379 23.2969 35.9004V27.1406H16.5879V23.5371H27.0762V45.627Z" fill="#4B5588"/>
<path d="M36.0996 45.627V3.61523H59.7422V7.21875H39.8789V22.834H55.9629V26.4375H39.8789V42.0234H59.7422V45.627H36.0996Z" fill="#4B5588"/>
<path d="M90.0058 35.9004C90.0058 37.3262 89.7324 38.6641 89.1855 39.9141C88.6582 41.1641 87.9258 42.2578 86.9883 43.1953C86.0508 44.1328 84.957 44.875 83.707 45.4219C82.457 45.9492 81.1191 46.2129 79.6933 46.2129H76.7051C75.2793 46.2129 73.9316 45.9492 72.6621 45.4219C71.4121 44.875 70.3183 44.1328 69.3808 43.1953C68.4433 42.2578 67.7012 41.1641 67.1543 39.9141C66.6269 38.6641 66.3633 37.3262 66.3633 35.9004V13.3418C66.3633 11.916 66.6269 10.5781 67.1543 9.32812C67.7012 8.07812 68.4433 6.98438 69.3808 6.04688C70.3183 5.10938 71.4121 4.37695 72.6621 3.84961C73.9316 3.30273 75.2793 3.0293 76.7051 3.0293H79.6933C81.1191 3.0293 82.457 3.30273 83.707 3.84961C84.957 4.37695 86.0508 5.10938 86.9883 6.04688C87.9258 6.98438 88.6582 8.07812 89.1855 9.32812C89.7324 10.5781 90.0058 11.916 90.0058 13.3418V35.9004ZM86.2265 13.3418C86.2265 12.4043 86.0508 11.5352 85.6992 10.7344C85.3476 9.91406 84.8691 9.20117 84.2637 8.5957C83.6582 7.99023 82.9453 7.51172 82.125 7.16016C81.3242 6.80859 80.4551 6.63281 79.5176 6.63281H76.8808C75.9433 6.63281 75.0644 6.80859 74.2441 7.16016C73.4433 7.51172 72.7305 7.99023 72.1055 8.5957C71.5 9.20117 71.0215 9.91406 70.6699 10.7344C70.3183 11.5352 70.1426 12.4043 70.1426 13.3418V35.9004C70.1426 36.8379 70.3183 37.7168 70.6699 38.5371C71.0215 39.3379 71.5 40.0508 72.1055 40.6758C72.7305 41.2812 73.4433 41.7598 74.2441 42.1113C75.0644 42.4629 75.9433 42.6387 76.8808 42.6387H79.5176C80.4551 42.6387 81.3242 42.4629 82.125 42.1113C82.9453 41.7598 83.6582 41.2812 84.2637 40.6758C84.8691 40.0508 85.3476 39.3379 85.6992 38.5371C86.0508 37.7168 86.2265 36.8379 86.2265 35.9004V13.3418Z" fill="#4B5588"/>
<path d="M140.924 45.627H138.961L130.787 14.0156L130.67 12.375L130.494 14.0156L122.379 45.627H120.416L109.254 3.61523H113.033L121.266 35.5488L121.383 37.1016L121.5 35.5488L129.586 3.61523H131.695L139.781 35.5488L139.898 37.1016L140.045 35.5488L148.248 3.61523H152.027L140.924 45.627Z" fill="#4B5588"/>
<path d="M158.033 45.627V3.61523H181.676V7.21875H161.812V22.834H177.896V26.4375H161.812V42.0234H181.676V45.627H158.033Z" fill="#4B5588"/>
<path d="M212.555 35.3145C212.555 36.7402 212.281 38.0781 211.734 39.3281C211.207 40.5781 210.475 41.6719 209.537 42.6094C208.6 43.5469 207.496 44.2891 206.227 44.8359C204.977 45.3633 203.639 45.627 202.213 45.627H188.912V3.61523H202.213C203.639 3.61523 204.977 3.88867 206.227 4.43555C207.496 4.96289 208.6 5.69531 209.537 6.63281C210.475 7.57031 211.207 8.67383 211.734 9.94336C212.281 11.1934 212.555 12.5312 212.555 13.957V14.3672C212.555 15.3633 212.418 16.3203 212.145 17.2383C211.891 18.1367 211.52 18.9766 211.031 19.7578C210.543 20.5391 209.967 21.252 209.303 21.8965C208.639 22.5215 207.896 23.0488 207.076 23.4785C207.896 23.9082 208.639 24.4453 209.303 25.0898C209.967 25.7148 210.543 26.4277 211.031 27.2285C211.52 28.0098 211.891 28.8594 212.145 29.7773C212.418 30.6758 212.555 31.623 212.555 32.6191V35.3145ZM208.775 32.0039C208.775 31.0664 208.6 30.1973 208.248 29.3965C207.896 28.5762 207.408 27.8633 206.783 27.2578C206.178 26.6523 205.465 26.1738 204.645 25.8223C203.844 25.4707 202.975 25.2949 202.037 25.2949H192.691V42.0234H202.037C202.975 42.0234 203.844 41.8477 204.645 41.4961C205.465 41.1445 206.178 40.666 206.783 40.0605C207.408 39.4551 207.896 38.752 208.248 37.9512C208.6 37.1309 208.775 36.252 208.775 35.3145V32.0039ZM208.775 13.957C208.775 13.0195 208.6 12.1504 208.248 11.3496C207.896 10.5293 207.408 9.81641 206.783 9.21094C206.178 8.58594 205.465 8.09766 204.645 7.74609C203.844 7.39453 202.975 7.21875 202.037 7.21875H192.691V21.6914H202.037C202.975 21.6914 203.844 21.5156 204.645 21.1641C205.465 20.8125 206.178 20.334 206.783 19.7285C207.408 19.1035 207.896 18.3906 208.248 17.5898C208.6 16.7695 208.775 15.8906 208.775 14.9531V13.957Z" fill="#4B5588"/>
</g>
<path d="M24.0762 42.627H22.875L20.6777 39.2578C19.7598 40.4688 18.6465 41.4355 17.3379 42.1582C16.0293 42.8613 14.5742 43.2129 12.9726 43.2129H10.7754C9.34959 43.2129 8.00194 42.9492 6.73241 42.4219C5.48241 41.875 4.38866 41.1328 3.45116 40.1953C2.51366 39.2578 1.77147 38.1641 1.22459 36.9141C0.69725 35.6641 0.433578 34.3262 0.433578 32.9004V10.3418C0.433578 8.91602 0.69725 7.57812 1.22459 6.32812C1.77147 5.07812 2.51366 3.98438 3.45116 3.04688C4.38866 2.10938 5.48241 1.37695 6.73241 0.849609C8.00194 0.302734 9.34959 0.0292969 10.7754 0.0292969H13.7637C15.1894 0.0292969 16.5273 0.302734 17.7773 0.849609C19.0273 1.37695 20.1211 2.10938 21.0586 3.04688C21.9961 3.98438 22.7285 5.07812 23.2558 6.32812C23.8027 7.57812 24.0762 8.91602 24.0762 10.3418V12.041L20.2969 12.627V10.3418C20.2969 9.4043 20.1211 8.53516 19.7695 7.73438C19.418 6.91406 18.9394 6.20117 18.334 5.5957C17.7285 4.99023 17.0156 4.51172 16.1953 4.16016C15.3945 3.80859 14.5254 3.63281 13.5879 3.63281H10.9512C10.0137 3.63281 9.13475 3.80859 8.31444 4.16016C7.51366 4.51172 6.80077 4.99023 6.17577 5.5957C5.5703 6.20117 5.09178 6.91406 4.74022 7.73438C4.38866 8.53516 4.21288 9.4043 4.21288 10.3418V32.9004C4.21288 33.8379 4.38866 34.7168 4.74022 35.5371C5.09178 36.3379 5.5703 37.0508 6.17577 37.6758C6.80077 38.2812 7.51366 38.7598 8.31444 39.1113C9.13475 39.4629 10.0137 39.6387 10.9512 39.6387H13.5879C14.5254 39.6387 15.3945 39.4629 16.1953 39.1113C17.0156 38.7598 17.7285 38.2812 18.334 37.6758C18.9394 37.0508 19.418 36.3379 19.7695 35.5371C20.1211 34.7168 20.2969 33.8379 20.2969 32.9004V24.1406H13.5879V20.5371H24.0762V42.627Z" fill="white"/>
<path d="M33.0996 42.627V0.615234H56.7422V4.21875H36.8789V19.834H52.9629V23.4375H36.8789V39.0234H56.7422V42.627H33.0996Z" fill="white"/>
<path d="M87.0058 32.9004C87.0058 34.3262 86.7324 35.6641 86.1855 36.9141C85.6582 38.1641 84.9258 39.2578 83.9883 40.1953C83.0508 41.1328 81.957 41.875 80.707 42.4219C79.457 42.9492 78.1191 43.2129 76.6933 43.2129H73.7051C72.2793 43.2129 70.9316 42.9492 69.6621 42.4219C68.4121 41.875 67.3183 41.1328 66.3808 40.1953C65.4433 39.2578 64.7012 38.1641 64.1543 36.9141C63.6269 35.6641 63.3633 34.3262 63.3633 32.9004V10.3418C63.3633 8.91602 63.6269 7.57812 64.1543 6.32812C64.7012 5.07812 65.4433 3.98438 66.3808 3.04688C67.3183 2.10938 68.4121 1.37695 69.6621 0.849609C70.9316 0.302734 72.2793 0.0292969 73.7051 0.0292969H76.6933C78.1191 0.0292969 79.457 0.302734 80.707 0.849609C81.957 1.37695 83.0508 2.10938 83.9883 3.04688C84.9258 3.98438 85.6582 5.07812 86.1855 6.32812C86.7324 7.57812 87.0058 8.91602 87.0058 10.3418V32.9004ZM83.2265 10.3418C83.2265 9.4043 83.0508 8.53516 82.6992 7.73438C82.3476 6.91406 81.8691 6.20117 81.2637 5.5957C80.6582 4.99023 79.9453 4.51172 79.125 4.16016C78.3242 3.80859 77.4551 3.63281 76.5176 3.63281H73.8808C72.9433 3.63281 72.0644 3.80859 71.2441 4.16016C70.4433 4.51172 69.7305 4.99023 69.1055 5.5957C68.5 6.20117 68.0215 6.91406 67.6699 7.73438C67.3183 8.53516 67.1426 9.4043 67.1426 10.3418V32.9004C67.1426 33.8379 67.3183 34.7168 67.6699 35.5371C68.0215 36.3379 68.5 37.0508 69.1055 37.6758C69.7305 38.2812 70.4433 38.7598 71.2441 39.1113C72.0644 39.4629 72.9433 39.6387 73.8808 39.6387H76.5176C77.4551 39.6387 78.3242 39.4629 79.125 39.1113C79.9453 38.7598 80.6582 38.2812 81.2637 37.6758C81.8691 37.0508 82.3476 36.3379 82.6992 35.5371C83.0508 34.7168 83.2265 33.8379 83.2265 32.9004V10.3418Z" fill="white"/>
<path d="M137.924 42.627H135.961L127.787 11.0156L127.67 9.375L127.494 11.0156L119.379 42.627H117.416L106.254 0.615234H110.033L118.266 32.5488L118.383 34.1016L118.5 32.5488L126.586 0.615234H128.695L136.781 32.5488L136.898 34.1016L137.045 32.5488L145.248 0.615234H149.027L137.924 42.627Z" fill="white"/>
<path d="M155.033 42.627V0.615234H178.676V4.21875H158.812V19.834H174.896V23.4375H158.812V39.0234H178.676V42.627H155.033Z" fill="white"/>
<path d="M209.555 32.3145C209.555 33.7402 209.281 35.0781 208.734 36.3281C208.207 37.5781 207.475 38.6719 206.537 39.6094C205.6 40.5469 204.496 41.2891 203.227 41.8359C201.977 42.3633 200.639 42.627 199.213 42.627H185.912V0.615234H199.213C200.639 0.615234 201.977 0.888672 203.227 1.43555C204.496 1.96289 205.6 2.69531 206.537 3.63281C207.475 4.57031 208.207 5.67383 208.734 6.94336C209.281 8.19336 209.555 9.53125 209.555 10.957V11.3672C209.555 12.3633 209.418 13.3203 209.145 14.2383C208.891 15.1367 208.52 15.9766 208.031 16.7578C207.543 17.5391 206.967 18.252 206.303 18.8965C205.639 19.5215 204.896 20.0488 204.076 20.4785C204.896 20.9082 205.639 21.4453 206.303 22.0898C206.967 22.7148 207.543 23.4277 208.031 24.2285C208.52 25.0098 208.891 25.8594 209.145 26.7773C209.418 27.6758 209.555 28.623 209.555 29.6191V32.3145ZM205.775 29.0039C205.775 28.0664 205.6 27.1973 205.248 26.3965C204.896 25.5762 204.408 24.8633 203.783 24.2578C203.178 23.6523 202.465 23.1738 201.645 22.8223C200.844 22.4707 199.975 22.2949 199.037 22.2949H189.691V39.0234H199.037C199.975 39.0234 200.844 38.8477 201.645 38.4961C202.465 38.1445 203.178 37.666 203.783 37.0605C204.408 36.4551 204.896 35.752 205.248 34.9512C205.6 34.1309 205.775 33.252 205.775 32.3145V29.0039ZM205.775 10.957C205.775 10.0195 205.6 9.15039 205.248 8.34961C204.896 7.5293 204.408 6.81641 203.783 6.21094C203.178 5.58594 202.465 5.09766 201.645 4.74609C200.844 4.39453 199.975 4.21875 199.037 4.21875H189.691V18.6914H199.037C199.975 18.6914 200.844 18.5156 201.645 18.1641C202.465 17.8125 203.178 17.334 203.783 16.7285C204.408 16.1035 204.896 15.3906 205.248 14.5898C205.6 13.7695 205.775 12.8906 205.775 11.9531V10.957Z" fill="white"/>
</svg>
