<svg width="47" height="213" viewBox="0 0 47 213" fill="none" xmlns="http://www.w3.org/2000/svg">
<g opacity="0.25">
<path d="M46 185.539L46 186.74L42.6309 188.937C43.8418 189.855 44.8086 190.969 45.5312 192.277C46.2344 193.586 46.5859 195.041 46.5859 196.643L46.5859 198.84C46.5859 200.266 46.3223 201.613 45.7949 202.883C45.248 204.133 44.5059 205.227 43.5684 206.164C42.6309 207.102 41.5371 207.844 40.2871 208.391C39.0371 208.918 37.6992 209.182 36.2734 209.182L13.7148 209.182C12.2891 209.182 10.9512 208.918 9.70117 208.391C8.45117 207.844 7.35742 207.102 6.41992 206.164C5.48242 205.227 4.75 204.133 4.22266 202.883C3.67578 201.613 3.40234 200.266 3.40234 198.84L3.40234 195.852C3.40234 194.426 3.67578 193.088 4.22266 191.838C4.75 190.588 5.48242 189.494 6.41992 188.557C7.35742 187.619 8.45117 186.887 9.70117 186.359C10.9512 185.812 12.2891 185.539 13.7148 185.539L15.4141 185.539L16 189.318L13.7148 189.318C12.7773 189.318 11.9082 189.494 11.1074 189.846C10.2871 190.197 9.57422 190.676 8.96875 191.281C8.36328 191.887 7.88476 192.6 7.5332 193.42C7.18164 194.221 7.00586 195.09 7.00586 196.027L7.00586 198.664C7.00586 199.602 7.18164 200.48 7.5332 201.301C7.88477 202.102 8.36328 202.814 8.96875 203.439C9.57422 204.045 10.2871 204.523 11.1074 204.875C11.9082 205.227 12.7773 205.402 13.7148 205.402L36.2734 205.402C37.2109 205.402 38.0898 205.227 38.9102 204.875C39.7109 204.523 40.4238 204.045 41.0488 203.439C41.6543 202.814 42.1328 202.102 42.4844 201.301C42.8359 200.48 43.0117 199.602 43.0117 198.664L43.0117 196.027C43.0117 195.09 42.8359 194.221 42.4844 193.42C42.1328 192.6 41.6543 191.887 41.0488 191.281C40.4238 190.676 39.7109 190.197 38.9102 189.846C38.0898 189.494 37.2109 189.318 36.2734 189.318L27.5137 189.318L27.5137 196.027L23.9102 196.027L23.9102 185.539L46 185.539Z" fill="#4B5588"/>
<path d="M46 176.516L3.98828 176.516L3.98828 152.873L7.59179 152.873L7.5918 172.736L23.207 172.736L23.207 156.652L26.8105 156.652L26.8105 172.736L42.3965 172.736L42.3965 152.873L46 152.873L46 176.516Z" fill="#4B5588"/>
<path d="M36.2734 122.609C37.6992 122.609 39.0371 122.883 40.2871 123.43C41.5371 123.957 42.6309 124.689 43.5684 125.627C44.5059 126.564 45.248 127.658 45.7949 128.908C46.3223 130.158 46.5859 131.496 46.5859 132.922L46.5859 135.91C46.5859 137.336 46.3223 138.684 45.7949 139.953C45.248 141.203 44.5059 142.297 43.5684 143.234C42.6309 144.172 41.5371 144.914 40.2871 145.461C39.0371 145.988 37.6992 146.252 36.2734 146.252L13.7148 146.252C12.2891 146.252 10.9512 145.988 9.70117 145.461C8.45117 144.914 7.35742 144.172 6.41992 143.234C5.48242 142.297 4.75 141.203 4.22265 139.953C3.67578 138.684 3.40234 137.336 3.40234 135.91L3.40234 132.922C3.40234 131.496 3.67578 130.158 4.22265 128.908C4.75 127.658 5.48242 126.564 6.41992 125.627C7.35742 124.689 8.45117 123.957 9.70117 123.43C10.9512 122.883 12.2891 122.609 13.7148 122.609L36.2734 122.609ZM13.7148 126.389C12.7773 126.389 11.9082 126.564 11.1074 126.916C10.2871 127.268 9.57422 127.746 8.96875 128.352C8.36328 128.957 7.88476 129.67 7.5332 130.49C7.18164 131.291 7.00586 132.16 7.00586 133.098L7.00586 135.734C7.00586 136.672 7.18164 137.551 7.5332 138.371C7.88476 139.172 8.36328 139.885 8.96875 140.51C9.57422 141.115 10.2871 141.594 11.1074 141.945C11.9082 142.297 12.7773 142.473 13.7148 142.473L36.2734 142.473C37.2109 142.473 38.0898 142.297 38.9102 141.945C39.7109 141.594 40.4238 141.115 41.0488 140.51C41.6543 139.885 42.1328 139.172 42.4844 138.371C42.8359 137.551 43.0117 136.672 43.0117 135.734L43.0117 133.098C43.0117 132.16 42.8359 131.291 42.4844 130.49C42.1328 129.67 41.6543 128.957 41.0488 128.352C40.4238 127.746 39.7109 127.268 38.9102 126.916C38.0898 126.564 37.2109 126.389 36.2734 126.389L13.7148 126.389Z" fill="#4B5588"/>
<path d="M46 71.6914L46 73.6543L14.3887 81.8281L12.748 81.9453L14.3887 82.1211L46 90.2363L46 92.1992L3.98828 103.361L3.98828 99.582L35.9219 91.3496L37.4746 91.2324L35.9219 91.1152L3.98828 83.0293L3.98828 80.9199L35.9219 72.834L37.4746 72.7168L35.9219 72.5703L3.98827 64.3672L3.98827 60.5879L46 71.6914Z" fill="#4B5588"/>
<path d="M46 54.582L3.98827 54.582L3.98827 30.9395L7.59179 30.9395L7.59179 50.8027L23.207 50.8027L23.207 34.7187L26.8105 34.7187L26.8105 50.8027L42.3965 50.8027L42.3965 30.9395L46 30.9395L46 54.582Z" fill="#4B5588"/>
<path d="M35.6875 0.0605455C37.1133 0.0605454 38.4512 0.333983 39.7012 0.880858C40.9512 1.4082 42.0449 2.14062 42.9824 3.07812C43.9199 4.01562 44.6621 5.11914 45.209 6.38867C45.7363 7.63867 46 8.97656 46 10.4023L46 23.7031L3.98827 23.7031L3.98827 10.4023C3.98827 8.97656 4.26171 7.63867 4.80858 6.38867C5.33593 5.11914 6.06835 4.01562 7.00585 3.07812C7.94335 2.14062 9.04687 1.4082 10.3164 0.880859C11.5664 0.333984 12.9043 0.0605465 14.3301 0.0605464L14.7402 0.0605464C15.7363 0.0605463 16.6934 0.197265 17.6113 0.470703C18.5098 0.724609 19.3496 1.0957 20.1309 1.58398C20.9121 2.07226 21.625 2.64844 22.2695 3.3125C22.8945 3.97656 23.4219 4.71875 23.8516 5.53906C24.2812 4.71875 24.8184 3.97656 25.4629 3.3125C26.0879 2.64844 26.8008 2.07226 27.6016 1.58398C28.3828 1.0957 29.2324 0.724608 30.1504 0.470702C31.0488 0.197264 31.9961 0.0605456 32.9922 0.0605456L35.6875 0.0605455ZM32.3769 3.83984C31.4394 3.83984 30.5703 4.01562 29.7695 4.36719C28.9492 4.71875 28.2363 5.20703 27.6309 5.83203C27.0254 6.4375 26.5469 7.15039 26.1953 7.9707C25.8437 8.77148 25.668 9.64062 25.668 10.5781L25.668 19.9238L42.3965 19.9238L42.3965 10.5781C42.3965 9.64062 42.2207 8.77148 41.8691 7.9707C41.5176 7.15039 41.0391 6.4375 40.4336 5.83203C39.8281 5.20703 39.125 4.71875 38.3242 4.36719C37.5039 4.01562 36.625 3.83984 35.6875 3.83984L32.3769 3.83984ZM14.3301 3.83984C13.3926 3.83984 12.5234 4.01562 11.7226 4.36719C10.9023 4.71875 10.1894 5.20703 9.58398 5.83203C8.95898 6.4375 8.47069 7.15039 8.11913 7.9707C7.76757 8.77148 7.59179 9.64062 7.59179 10.5781L7.59179 19.9238L22.0644 19.9238L22.0644 10.5781C22.0644 9.64062 21.8887 8.77148 21.5371 7.9707C21.1855 7.15039 20.707 6.4375 20.1016 5.83203C19.4766 5.20703 18.7637 4.71875 17.9629 4.36719C17.1426 4.01562 16.2637 3.83984 15.3262 3.83984L14.3301 3.83984Z" fill="#4B5588"/>
</g>
<path d="M43 188.539L43 189.74L39.6309 191.937C40.8418 192.855 41.8086 193.969 42.5312 195.277C43.2344 196.586 43.5859 198.041 43.5859 199.643L43.5859 201.84C43.5859 203.266 43.3223 204.613 42.7949 205.883C42.248 207.133 41.5059 208.227 40.5684 209.164C39.6309 210.102 38.5371 210.844 37.2871 211.391C36.0371 211.918 34.6992 212.182 33.2734 212.182L10.7148 212.182C9.28906 212.182 7.95117 211.918 6.70117 211.391C5.45117 210.844 4.35742 210.102 3.41992 209.164C2.48242 208.227 1.75 207.133 1.22266 205.883C0.675781 204.613 0.402343 203.266 0.402343 201.84L0.402343 198.852C0.402343 197.426 0.675781 196.088 1.22266 194.838C1.75 193.588 2.48242 192.494 3.41992 191.557C4.35742 190.619 5.45117 189.887 6.70117 189.359C7.95117 188.812 9.28906 188.539 10.7148 188.539L12.4141 188.539L13 192.318L10.7148 192.318C9.77734 192.318 8.9082 192.494 8.10742 192.846C7.28711 193.197 6.57422 193.676 5.96875 194.281C5.36328 194.887 4.88476 195.6 4.5332 196.42C4.18164 197.221 4.00586 198.09 4.00586 199.027L4.00586 201.664C4.00586 202.602 4.18164 203.48 4.5332 204.301C4.88477 205.102 5.36328 205.814 5.96875 206.439C6.57422 207.045 7.28711 207.523 8.10742 207.875C8.9082 208.227 9.77734 208.402 10.7148 208.402L33.2734 208.402C34.2109 208.402 35.0898 208.227 35.9102 207.875C36.7109 207.523 37.4238 207.045 38.0488 206.439C38.6543 205.814 39.1328 205.102 39.4844 204.301C39.8359 203.48 40.0117 202.602 40.0117 201.664L40.0117 199.027C40.0117 198.09 39.8359 197.221 39.4844 196.42C39.1328 195.6 38.6543 194.887 38.0488 194.281C37.4238 193.676 36.7109 193.197 35.9102 192.846C35.0898 192.494 34.2109 192.318 33.2734 192.318L24.5137 192.318L24.5137 199.027L20.9102 199.027L20.9102 188.539L43 188.539Z" fill="white"/>
<path d="M43 179.516L0.98828 179.516L0.988279 155.873L4.59179 155.873L4.5918 175.736L20.207 175.736L20.207 159.652L23.8105 159.652L23.8105 175.736L39.3965 175.736L39.3965 155.873L43 155.873L43 179.516Z" fill="white"/>
<path d="M33.2734 125.609C34.6992 125.609 36.0371 125.883 37.2871 126.43C38.5371 126.957 39.6309 127.689 40.5684 128.627C41.5059 129.564 42.248 130.658 42.7949 131.908C43.3223 133.158 43.5859 134.496 43.5859 135.922L43.5859 138.91C43.5859 140.336 43.3223 141.684 42.7949 142.953C42.248 144.203 41.5059 145.297 40.5684 146.234C39.6309 147.172 38.5371 147.914 37.2871 148.461C36.0371 148.988 34.6992 149.252 33.2734 149.252L10.7148 149.252C9.28906 149.252 7.95117 148.988 6.70117 148.461C5.45117 147.914 4.35742 147.172 3.41992 146.234C2.48242 145.297 1.75 144.203 1.22265 142.953C0.675778 141.684 0.402341 140.336 0.402341 138.91L0.40234 135.922C0.40234 134.496 0.675778 133.158 1.22265 131.908C1.75 130.658 2.48242 129.564 3.41992 128.627C4.35742 127.689 5.45117 126.957 6.70117 126.43C7.95117 125.883 9.28906 125.609 10.7148 125.609L33.2734 125.609ZM10.7148 129.389C9.77734 129.389 8.9082 129.564 8.10742 129.916C7.28711 130.268 6.57422 130.746 5.96875 131.352C5.36328 131.957 4.88476 132.67 4.5332 133.49C4.18164 134.291 4.00586 135.16 4.00586 136.098L4.00586 138.734C4.00586 139.672 4.18164 140.551 4.5332 141.371C4.88476 142.172 5.36328 142.885 5.96875 143.51C6.57422 144.115 7.28711 144.594 8.10742 144.945C8.9082 145.297 9.77734 145.473 10.7148 145.473L33.2734 145.473C34.2109 145.473 35.0898 145.297 35.9102 144.945C36.7109 144.594 37.4238 144.115 38.0488 143.51C38.6543 142.885 39.1328 142.172 39.4844 141.371C39.8359 140.551 40.0117 139.672 40.0117 138.734L40.0117 136.098C40.0117 135.16 39.8359 134.291 39.4844 133.49C39.1328 132.67 38.6543 131.957 38.0488 131.352C37.4238 130.746 36.7109 130.268 35.9102 129.916C35.0898 129.564 34.2109 129.389 33.2734 129.389L10.7148 129.389Z" fill="white"/>
<path d="M43 74.6914L43 76.6543L11.3887 84.8281L9.74804 84.9453L11.3887 85.1211L43 93.2363L43 95.1992L0.988277 106.361L0.988276 102.582L32.9219 94.3496L34.4746 94.2324L32.9219 94.1152L0.988276 86.0293L0.988276 83.9199L32.9219 75.834L34.4746 75.7168L32.9219 75.5703L0.988275 67.3672L0.988275 63.5879L43 74.6914Z" fill="white"/>
<path d="M43 57.582L0.988274 57.582L0.988273 33.9395L4.59179 33.9395L4.59179 53.8027L20.207 53.8027L20.207 37.7187L23.8105 37.7187L23.8105 53.8027L39.3965 53.8027L39.3965 33.9395L43 33.9395L43 57.582Z" fill="white"/>
<path d="M32.6875 3.06055C34.1133 3.06055 35.4512 3.33398 36.7012 3.88086C37.9512 4.4082 39.0449 5.14062 39.9824 6.07812C40.9199 7.01562 41.6621 8.11914 42.209 9.38867C42.7363 10.6387 43 11.9766 43 13.4023L43 26.7031L0.988273 26.7031L0.988273 13.4023C0.988272 11.9766 1.26171 10.6387 1.80858 9.38867C2.33593 8.11914 3.06835 7.01562 4.00585 6.07812C4.94335 5.14062 6.04687 4.4082 7.3164 3.88086C8.5664 3.33398 9.90429 3.06055 11.3301 3.06055L11.7402 3.06055C12.7363 3.06055 13.6934 3.19727 14.6113 3.4707C15.5098 3.72461 16.3496 4.0957 17.1309 4.58398C17.9121 5.07226 18.625 5.64844 19.2695 6.3125C19.8945 6.97656 20.4219 7.71875 20.8516 8.53906C21.2812 7.71875 21.8184 6.97656 22.4629 6.3125C23.0879 5.64844 23.8008 5.07226 24.6016 4.58398C25.3828 4.0957 26.2324 3.72461 27.1504 3.4707C28.0488 3.19726 28.9961 3.06055 29.9922 3.06055L32.6875 3.06055ZM29.3769 6.83984C28.4394 6.83984 27.5703 7.01562 26.7695 7.36719C25.9492 7.71875 25.2363 8.20703 24.6309 8.83203C24.0254 9.4375 23.5469 10.1504 23.1953 10.9707C22.8437 11.7715 22.668 12.6406 22.668 13.5781L22.668 22.9238L39.3965 22.9238L39.3965 13.5781C39.3965 12.6406 39.2207 11.7715 38.8691 10.9707C38.5176 10.1504 38.0391 9.4375 37.4336 8.83203C36.8281 8.20703 36.125 7.71875 35.3242 7.36719C34.5039 7.01562 33.625 6.83984 32.6875 6.83984L29.3769 6.83984ZM11.3301 6.83984C10.3926 6.83984 9.52343 7.01562 8.72265 7.36719C7.90233 7.71875 7.18944 8.20703 6.58398 8.83203C5.95898 9.4375 5.47069 10.1504 5.11913 10.9707C4.76757 11.7715 4.59179 12.6406 4.59179 13.5781L4.59179 22.9238L19.0644 22.9238L19.0644 13.5781C19.0644 12.6406 18.8887 11.7715 18.5371 10.9707C18.1855 10.1504 17.707 9.4375 17.1016 8.83203C16.4766 8.20703 15.7637 7.71875 14.9629 7.36719C14.1426 7.01562 13.2637 6.83984 12.3262 6.83984L11.3301 6.83984Z" fill="white"/>
</svg>
